<svg width="20" height="20" viewBox="0 0 20 20" fill="none" xmlns="http://www.w3.org/2000/svg">
<path d="M0 2.5C0 1.83696 0.263391 1.20107 0.732233 0.732233C1.20107 0.263392 1.83696 0 2.5 0L17.5 0C18.163 0 18.7989 0.263392 19.2678 0.732233C19.7366 1.20107 20 1.83696 20 2.5V7.5H19.1667V20H0.833334V7.5H0V2.5ZM18.3333 2.5C18.3333 2.27899 18.2455 2.06702 18.0893 1.91074C17.933 1.75446 17.721 1.66667 17.5 1.66667H2.5C2.27899 1.66667 2.06702 1.75446 1.91074 1.91074C1.75446 2.06702 1.66667 2.27899 1.66667 2.5V5.83333H18.3333V2.5ZM2.5 18.3333H17.5V7.5H2.5V18.3333Z" fill="white"/>
<path d="M6.66683 10H13.3335V11.6667H6.66683V10Z" fill="white"/>
</svg>
