<?xml version="1.0" encoding="UTF-8" standalone="no"?>
<!DOCTYPE svg PUBLIC "-//W3C//DTD SVG 1.1//EN" "http://www.w3.org/Graphics/SVG/1.1/DTD/svg11.dtd">
<svg width="100%" height="100%" viewBox="0 0 20380 7658" version="1.1" xmlns="http://www.w3.org/2000/svg" xmlns:xlink="http://www.w3.org/1999/xlink" xml:space="preserve" xmlns:serif="http://www.serif.com/" style="fill-rule:evenodd;clip-rule:evenodd;stroke-linejoin:round;stroke-miterlimit:2;">
    <g transform="matrix(13.0208,0,0,13.0208,5588.49,1874.03)">
        <path d="M0,-115.925L128.857,-115.925C129.409,-115.925 129.938,-115.706 130.328,-115.316C130.718,-114.926 130.937,-114.397 130.937,-113.845L130.937,28L158.937,28L158.937,-134.995C158.937,-139.927 154.939,-143.925 150.007,-143.925L0,-143.925L0,-115.925Z" style="fill:white;fill-rule:nonzero;"/>
    </g>
    <g transform="matrix(13.0208,0,0,13.0208,364.583,0)">
        <path d="M0,171.925L0,29.684C0,28.754 0.754,28 1.684,28L130.937,28L130.937,0L-18.923,0C-21.33,0 -23.639,0.956 -25.341,2.659C-27.044,4.361 -28,6.67 -28,9.077L-28,171.925L0,171.925Z" style="fill:white;fill-rule:nonzero;"/>
    </g>
    <g transform="matrix(13.0208,0,0,13.0208,2069.49,6122.18)">
        <path d="M0,89.95L-128.279,89.95C-128.984,89.95 -129.66,89.67 -130.158,89.171C-130.657,88.673 -130.937,87.997 -130.937,87.292L-130.937,-28L-158.937,-28L-158.937,109.018C-158.937,111.387 -157.996,113.659 -156.321,115.334C-154.646,117.009 -152.374,117.95 -150.005,117.95L0,117.95L0,89.95Z" style="fill:white;fill-rule:nonzero;"/>
    </g>
    <g transform="matrix(13.0208,0,0,13.0208,7293.39,7657.99)">
        <path d="M0,-145.95L0,-30.325C-0,-29.041 -1.041,-28 -2.325,-28L-130.937,-28L-130.937,0L19.219,0C24.069,-0 28,-3.931 28,-8.781L28,-145.95L0,-145.95Z" style="fill:white;fill-rule:nonzero;"/>
    </g>
    <g transform="matrix(-13.0208,0,0,13.0208,3286.39,4493.15)">
        <path d="M-63.552,-228.917C-63.552,-230.269 -62.456,-231.366 -61.103,-231.366L-2.449,-231.366C-1.097,-231.366 -0,-230.269 0,-228.917L-0,-5.913C-0,-4.922 -0.597,-4.029 -1.512,-3.65C-2.427,-3.271 -3.48,-3.48 -4.181,-4.181C-17.281,-17.281 -57.006,-57.006 -62.835,-62.835C-63.294,-63.294 -63.552,-63.917 -63.552,-64.567L-63.552,-228.917Z" style="fill:white;fill-rule:nonzero;"/>
    </g>
    <g transform="matrix(-13.0208,0,0,13.0208,2846.51,4933.03)">
        <path d="M-16.476,-262.683C-16.476,-264.045 -15.372,-265.149 -14.01,-265.149L16.419,-265.149C17.779,-265.149 18.881,-264.047 18.881,-262.687L18.881,12.968C18.881,13.959 18.284,14.852 17.369,15.231C16.454,15.61 15.401,15.401 14.7,14.7C6.351,6.351 -11.918,-11.918 -15.759,-15.759C-16.218,-16.218 -16.476,-16.841 -16.476,-17.49L-16.476,-262.683Z" style="fill:white;fill-rule:nonzero;"/>
    </g>
    <g transform="matrix(-13.0208,0,0,13.0208,1549.02,6230.52)">
        <path d="M-42.519,-362.287C-42.519,-363.673 -41.396,-364.796 -40.01,-364.796L-2.451,-364.796C-1.801,-364.796 -1.178,-364.538 -0.718,-364.078C-0.258,-363.618 0,-362.995 0,-362.345L0,-2.855C-0,-2.376 -0.288,-1.945 -0.73,-1.762C-1.172,-1.579 -1.68,-1.68 -2.019,-2.019C-8.877,-8.877 -31.311,-31.311 -39.496,-39.496C-41.431,-41.431 -42.519,-44.057 -42.519,-46.794L-42.519,-362.287Z" style="fill:white;fill-rule:nonzero;"/>
    </g>
    <g transform="matrix(-13.0208,0,0,13.0208,5509.24,2248.44)">
        <path d="M-53.746,-58.972L-2.449,-58.972C-1.097,-58.972 -0,-57.875 0,-56.523L0,-5.861C0,-4.873 -0.593,-3.982 -1.505,-3.601C-2.416,-3.22 -3.467,-3.424 -4.17,-4.118C-15.094,-14.907 -44.46,-43.909 -55.467,-54.78C-56.174,-55.478 -56.389,-56.534 -56.012,-57.453C-55.635,-58.372 -54.74,-58.972 -53.746,-58.972Z" style="fill:white;fill-rule:nonzero;"/>
    </g>
    <g transform="matrix(-13.0208,0,0,13.0208,4699.93,3079.61)">
        <path d="M-25.825,-120.357C-25.825,-121.006 -25.567,-121.629 -25.107,-122.089C-24.648,-122.548 -24.025,-122.806 -23.375,-122.806L10.979,-122.806C11.629,-122.806 12.252,-122.548 12.711,-122.089C13.17,-121.629 13.428,-121.006 13.428,-120.357L13.428,7.49C13.428,8.482 12.83,9.376 11.913,9.754C10.996,10.133 9.942,9.92 9.242,9.217C0.14,0.059 -20.971,-21.18 -25.113,-25.347C-25.569,-25.805 -25.825,-26.426 -25.825,-27.073L-25.825,-120.357Z" style="fill:white;fill-rule:nonzero;"/>
    </g>
    <g transform="matrix(13.0208,0,0,13.0208,-3364.74,-2239.62)">
        <path d="M681.64,591.947C681.64,591.743 681.722,591.546 681.866,591.401C682.011,591.257 682.208,591.175 682.412,591.175L728.599,591.175C728.808,591.175 729.008,591.258 729.156,591.406C729.304,591.554 729.387,591.754 729.387,591.963L729.387,637.978C729.387,638.185 729.304,638.385 729.157,638.531C729.01,638.678 728.811,638.761 728.604,638.761L682.351,638.761C681.958,638.761 681.64,638.443 681.64,638.05L681.64,591.947ZM668.855,648.53C668.855,650.285 670.277,651.707 672.032,651.707L739.077,651.707C739.898,651.707 740.685,651.381 741.265,650.8C741.846,650.22 742.172,649.433 742.172,648.612L742.172,581.5C742.172,580.675 741.844,579.884 741.261,579.301C740.678,578.718 739.887,578.39 739.062,578.39L672.015,578.39C670.27,578.39 668.855,579.805 668.855,581.55L668.855,648.53Z" style="fill:white;fill-rule:nonzero;"/>
    </g>
    <g transform="matrix(10.4243,0,0,10.4243,-1528.58,-640.795)">
        <path d="M719.793,598.702C720.341,598.702 720.867,598.92 721.255,599.307C721.642,599.695 721.86,600.221 721.86,600.769L721.86,629.09C721.86,629.701 721.617,630.287 721.185,630.719C720.753,631.151 720.167,631.394 719.556,631.394L691.004,631.394C690.517,631.394 690.05,631.2 689.705,630.856C689.361,630.511 689.167,630.044 689.167,629.557L689.167,600.478C689.167,600.007 689.354,599.555 689.687,599.222C690.02,598.889 690.472,598.702 690.943,598.702L719.793,598.702Z" style="fill:white;"/>
    </g>
    <g transform="matrix(27.1528,0,0,6.76983,-14467.3,1973.62)">
        <path d="M721.067,598.702C721.505,598.702 721.86,600.127 721.86,601.884L721.86,627.847C721.86,629.806 721.464,631.394 720.976,631.394C716.259,631.394 694.119,631.394 689.872,631.394C689.483,631.394 689.167,630.128 689.167,628.565L689.167,601.437C689.167,600.712 689.239,600.016 689.367,599.503C689.495,598.99 689.668,598.702 689.849,598.702L721.067,598.702Z" style="fill:white;"/>
    </g>
    <g transform="matrix(2.14475e-15,35.0265,-6.76983,4.14532e-16,9159.92,-19814.6)">
        <path d="M721.245,598.702C721.585,598.702 721.86,600.127 721.86,601.884L721.86,627.847C721.86,629.806 721.553,631.394 721.174,631.394C716.866,631.394 693.588,631.394 689.714,631.394C689.412,631.394 689.167,630.128 689.167,628.565L689.167,601.437C689.167,600.712 689.223,600.016 689.322,599.503C689.421,598.99 689.555,598.702 689.696,598.702L721.245,598.702Z" style="fill:white;"/>
    </g>
    <g transform="matrix(1.45257e-15,23.7222,-6.76983,4.14532e-16,8730.5,-12889)">
        <path d="M720.952,598.702C721.193,598.702 721.424,599.037 721.594,599.634C721.764,600.231 721.86,601.04 721.86,601.884L721.86,627.847C721.86,629.806 721.407,631.394 720.848,631.394C715.915,631.394 694.497,631.394 691.148,631.394C690.873,631.394 690.617,630.904 690.469,630.093C689.64,625.567 686.858,610.378 685.49,602.914C685.336,602.073 685.326,601.003 685.462,600.126C685.599,599.248 685.862,598.702 686.147,598.702L720.952,598.702Z" style="fill:white;"/>
    </g>
    <g transform="matrix(1.03726e-15,16.9397,-6.76983,4.14532e-16,7652.28,-6740.06)">
        <path d="M720.588,598.702C721.291,598.702 721.86,600.127 721.86,601.884L721.86,627.847C721.86,629.806 721.225,631.394 720.442,631.394C714.965,631.394 695.242,631.394 690.298,631.394C689.998,631.394 689.71,631.096 689.498,630.565C689.286,630.035 689.167,629.315 689.167,628.565L689.167,601.437C689.167,600.712 689.282,600.016 689.487,599.503C689.692,598.99 689.97,598.702 690.26,598.702L720.588,598.702Z" style="fill:white;"/>
    </g>
    <g transform="matrix(1.66022e-15,27.1135,-6.76983,4.14532e-16,8068.63,-14749.4)">
        <path d="M721.065,598.702C721.504,598.702 721.86,600.127 721.86,601.884L721.86,627.847C721.86,629.806 721.463,631.394 720.974,631.394C716.867,631.394 699.766,631.394 697.288,631.394C697.096,631.394 696.912,631.082 696.779,630.529C695.86,626.711 692.126,611.207 690.231,603.336C690.041,602.546 689.987,601.377 690.094,600.368C690.201,599.358 690.448,598.702 690.722,598.702L721.065,598.702Z" style="fill:white;"/>
    </g>
    <g transform="matrix(-22.5164,2.75747e-15,-8.29064e-16,-6.76983,21571.2,9162.58)">
        <path d="M720.903,598.702C721.432,598.702 721.86,600.127 721.86,601.884L721.86,627.847C721.86,629.806 721.383,631.394 720.793,631.394C715.772,631.394 694.542,631.394 690.018,631.394C689.792,631.394 689.576,631.096 689.416,630.565C689.257,630.035 689.167,629.315 689.167,628.565L689.167,601.437C689.167,600.712 689.254,600.016 689.408,599.503C689.562,598.99 689.771,598.702 689.989,598.702L720.903,598.702Z" style="fill:white;"/>
    </g>
    <g transform="matrix(-13.6032,1.66592e-15,-8.29064e-16,-6.76983,14048.4,9175.25)">
        <path d="M720.276,598.702C721.151,598.702 721.86,600.127 721.86,601.884L721.86,627.847C721.86,629.806 721.07,631.394 720.095,631.394C714.284,631.394 695.828,631.394 690.575,631.394C689.797,631.394 689.167,630.128 689.167,628.565L689.167,601.437C689.167,600.712 689.31,600.016 689.566,599.503C689.821,598.99 690.167,598.702 690.528,598.702L720.276,598.702Z" style="fill:white;"/>
    </g>
    <g transform="matrix(-16.0902,1.97048e-15,-8.29064e-16,-6.76983,14994.2,9958.98)">
        <path d="M720.521,598.702C721.261,598.702 721.86,600.127 721.86,601.884L721.86,627.847C721.86,629.806 721.192,631.394 720.368,631.394C714.81,631.394 695.376,631.394 690.357,631.394C689.7,631.394 689.167,630.128 689.167,628.565L689.167,601.437C689.167,600.712 689.288,600.016 689.504,599.503C689.72,598.99 690.013,598.702 690.318,598.702C695.32,598.702 715.164,598.702 720.521,598.702Z" style="fill:white;"/>
    </g>
    <g transform="matrix(-13.6032,1.66592e-15,-8.29064e-16,-6.76983,13608.2,9679.63)">
        <path d="M720.276,598.702C721.151,598.702 721.86,600.127 721.86,601.884L721.86,627.847C721.86,629.806 721.07,631.394 720.095,631.394C714.284,631.394 695.828,631.394 690.575,631.394C689.797,631.394 689.167,630.128 689.167,628.565L689.167,601.437C689.167,600.712 689.31,600.016 689.566,599.503C689.821,598.99 690.167,598.702 690.528,598.702L720.276,598.702Z" style="fill:white;"/>
    </g>
    <g transform="matrix(1.38582e-15,22.6322,-6.76983,4.14532e-16,8724.49,-10179.7)">
        <path d="M721.86,598.702C726.725,598.702 723.266,622.627 722.165,629.543C721.979,630.682 721.622,631.392 721.234,631.392C717.18,631.394 694.677,631.394 690.013,631.394C689.789,631.394 689.574,631.096 689.415,630.565C689.256,630.035 689.167,629.315 689.167,628.565L689.167,601.437C689.167,600.712 689.253,600.016 689.407,599.503C689.56,598.99 689.768,598.702 689.985,598.702L721.86,598.702Z" style="fill:white;"/>
    </g>
    <g transform="matrix(1.5772e-15,25.7576,-6.76983,4.14532e-16,8065.3,-12346.1)">
        <path d="M721.024,598.702C721.486,598.702 721.86,600.127 721.86,601.884L721.86,627.847C721.86,629.806 721.443,631.394 720.928,631.394C716.125,631.394 694.235,631.394 689.91,631.394C689.713,631.394 689.524,631.096 689.385,630.565C689.245,630.035 689.167,629.315 689.167,628.565L689.167,601.437C689.167,600.712 689.243,600.016 689.378,599.503C689.512,598.99 689.695,598.702 689.886,598.702L721.024,598.702Z" style="fill:white;"/>
    </g>
    <g transform="matrix(1.07112e-15,-17.4927,6.76983,4.14532e-16,1244.8,16834.4)">
        <path d="M720.628,598.702C721.309,598.702 721.86,600.127 721.86,601.884L721.86,627.847C721.86,629.806 721.245,631.394 720.487,631.394C715.06,631.394 695.16,631.394 690.262,631.394C689.971,631.394 689.693,631.096 689.488,630.565C689.282,630.035 689.167,629.315 689.167,628.565L689.167,601.437C689.167,600.712 689.279,600.016 689.477,599.503C689.676,598.99 689.945,598.702 690.225,598.702L720.628,598.702Z" style="fill:white;"/>
    </g>
    <g transform="matrix(3.89346e-16,-6.3585,22.69,1.38936e-15,-11140,10633.2)">
        <path d="M718.472,598.702C720.343,598.702 721.86,599.127 721.86,599.651L721.86,630.336C721.86,630.616 721.462,630.886 720.754,631.084C720.046,631.282 719.085,631.394 718.083,631.394L692.179,631.394C691.38,631.394 690.614,631.305 690.049,631.147C689.484,630.989 689.167,630.774 689.167,630.55L689.167,599.518C689.167,599.302 689.474,599.094 690.02,598.941C690.566,598.788 691.307,598.702 692.079,598.702L718.472,598.702Z" style="fill:white;"/>
    </g>
    <g transform="matrix(3.89346e-16,-6.3585,6.76983,4.14532e-16,-264.644,9524.47)">
        <path d="M718.472,598.702C720.343,598.702 721.86,600.127 721.86,601.884L721.86,627.847C721.86,629.806 720.169,631.394 718.083,631.394L692.179,631.394C691.38,631.394 690.614,631.096 690.049,630.565C689.484,630.035 689.167,629.315 689.167,628.565L689.167,601.437C689.167,600.712 689.474,600.016 690.02,599.503C690.566,598.99 691.307,598.702 692.079,598.702L718.472,598.702Z" style="fill:white;"/>
    </g>
    <g transform="matrix(3.89346e-16,-6.3585,13.882,8.5003e-16,-6589.5,10631.4)">
        <path d="M720.866,612.477C721.502,612.768 721.86,613.163 721.86,613.575L721.86,626.781C721.86,627.24 721.462,627.68 720.754,628.004C720.046,628.329 719.085,628.511 718.083,628.511L692.179,628.511C691.38,628.511 690.614,628.366 690.049,628.107C689.484,627.848 689.167,627.497 689.167,627.131L689.167,601.67C689.167,601.051 689.981,600.492 691.23,600.255C692.479,600.018 693.917,600.149 694.873,600.586C702.911,604.263 717.017,610.716 720.866,612.477Z" style="fill:white;"/>
    </g>
    <g transform="matrix(3.89346e-16,-6.3585,19.2979,1.18165e-15,-6312.53,7953.11)">
        <path d="M718.472,598.702C720.343,598.702 721.86,599.202 721.86,599.818L721.86,630.15C721.86,630.837 720.169,631.394 718.083,631.394L692.179,631.394C691.38,631.394 690.614,631.289 690.049,631.103C689.484,630.917 689.167,630.665 689.167,630.402L689.167,599.661C689.167,599.407 689.474,599.163 690.02,598.983C690.566,598.803 691.307,598.702 692.079,598.702L718.472,598.702Z" style="fill:white;"/>
    </g>
    <g transform="matrix(4.86343e-16,23.979,6.76983,1.06949e-15,1632.49,-12715.1)">
        <path d="M720.962,598.702C721.458,598.702 721.86,600.127 721.86,601.884L721.86,627.847C721.86,629.806 721.412,631.394 720.859,631.394C715.94,631.394 694.397,631.394 689.966,631.394C689.754,631.394 689.551,631.096 689.401,630.565C689.251,630.035 689.167,629.315 689.167,628.565L689.167,601.437C689.167,600.712 689.248,600.016 689.393,599.503C689.538,598.99 689.734,598.702 689.939,598.702L720.962,598.702Z" style="fill:white;"/>
    </g>
    <g transform="matrix(-1.33681e-15,25.7635,6.76983,4.75238e-16,2030.69,-15134.3)">
        <path d="M721.024,598.702C721.486,598.702 721.86,600.127 721.86,601.884L721.86,627.847C721.86,629.806 721.443,631.394 720.928,631.394C718.051,631.394 691.736,631.394 687.854,631.394C687.444,631.394 687.111,630.128 687.111,628.565L687.111,601.437C687.111,600.712 687.187,600.016 687.321,599.503C687.456,598.99 687.639,598.702 687.83,598.702L721.024,598.702Z" style="fill:white;"/>
    </g>
    <g transform="matrix(5.13184e-16,33.0294,6.76983,1.78335e-15,2031.95,-18948.5)">
        <path d="M721.208,598.702C721.568,598.702 721.86,600.127 721.86,601.884L721.86,627.847C721.86,629.806 721.534,631.394 721.133,631.394L689.747,631.394C689.427,631.394 689.167,630.128 689.167,628.565L689.167,601.437C689.167,600.712 689.226,600.016 689.331,599.503C689.436,598.99 689.579,598.702 689.728,598.702L721.208,598.702Z" style="fill:white;"/>
    </g>
    <g transform="matrix(1.72281e-15,16.8305,6.76983,1.22332e-15,1591.52,-9558.01)">
        <path d="M731.596,598.702C732.303,598.702 732.876,600.127 732.876,601.884L732.876,627.847C732.876,629.806 732.237,631.394 731.449,631.394C725.29,631.394 700.917,631.394 692.484,631.394C692.017,631.394 691.597,630.683 691.426,629.602C691.254,628.521 691.367,627.289 691.708,626.496C695.179,618.452 701.853,602.979 703.382,599.437C703.585,598.965 703.853,598.702 704.132,598.702L731.596,598.702Z" style="fill:white;"/>
    </g>
    <g transform="matrix(1.60455e-15,18.7618,6.76983,1.31613e-15,2037.89,-11327.7)">
        <path d="M720.712,598.702C721.346,598.702 721.86,600.127 721.86,601.884L721.86,627.847C721.86,629.806 721.287,631.394 720.58,631.394L692.407,631.394C691.977,631.394 691.594,630.649 691.447,629.531C691.301,628.412 691.423,627.159 691.752,626.395C695.267,618.247 701.986,602.671 703.424,599.339C703.601,598.928 703.825,598.702 704.057,598.702C706.177,598.702 717.115,598.702 720.712,598.702Z" style="fill:white;"/>
    </g>
    <g transform="matrix(2.74714e-15,15.5626,6.76983,1.72961e-15,953.762,-8034.96)">
        <path d="M720.476,598.702C721.24,598.702 721.86,600.127 721.86,601.884L721.86,627.898C721.86,629.837 721.183,631.417 720.34,631.445C715.36,631.613 699.47,632.147 692.599,632.378C692.089,632.396 691.627,631.688 691.438,630.599C691.249,629.51 691.372,628.266 691.746,627.471C695.671,619.145 703.268,603.028 704.965,599.427C705.185,598.961 705.473,598.702 705.772,598.702L720.476,598.702Z" style="fill:white;"/>
    </g>
    <g transform="matrix(1.27589e-15,-20.8369,6.76983,4.14532e-16,-1262.12,20211.2)">
        <path d="M720.826,598.702C721.397,598.702 721.86,600.127 721.86,601.884L721.86,627.847C721.86,629.806 721.344,631.394 720.708,631.394C715.56,631.394 694.726,631.394 690.086,631.394C689.578,631.394 689.167,630.128 689.167,628.565L689.167,601.437C689.167,599.926 689.565,598.702 690.056,598.702L720.826,598.702Z" style="fill:white;"/>
    </g>
    <g transform="matrix(1.27589e-15,-20.8369,6.76983,4.14532e-16,-1719.43,20610.9)">
        <path d="M720.826,598.702C721.397,598.702 721.86,600.127 721.86,601.884L721.86,627.847C721.86,629.806 721.344,631.394 720.708,631.394C715.56,631.394 694.726,631.394 690.086,631.394C689.578,631.394 689.167,630.128 689.167,628.565L689.167,601.437C689.167,599.926 689.565,598.702 690.056,598.702L720.826,598.702Z" style="fill:white;"/>
    </g>
    <g transform="matrix(17.0442,-3.08149e-31,5.83145e-32,6.76983,-6003.18,124.251)">
        <path d="M720.596,598.702C721.294,598.702 721.86,600.127 721.86,601.884L721.86,627.847C721.86,629.806 721.229,631.394 720.451,631.394C714.983,631.394 695.226,631.394 690.291,631.394C689.67,631.394 689.167,630.128 689.167,628.565L689.167,601.437C689.167,600.712 689.281,600.016 689.485,599.503C689.689,598.99 689.965,598.702 690.253,598.702L720.596,598.702Z" style="fill:white;"/>
    </g>
    <g transform="matrix(17.872,-3.08149e-31,6.11469e-32,6.76983,-7436.03,-245.32)">
        <path d="M720.655,598.702C721.32,598.702 721.86,600.127 721.86,601.884L721.86,627.847C721.86,629.806 721.258,631.394 720.516,631.394C715.123,631.394 695.105,631.394 690.239,631.394C689.647,631.394 689.167,630.128 689.167,628.565L689.167,601.437C689.167,599.926 689.631,598.702 690.203,598.702L720.655,598.702Z" style="fill:white;"/>
    </g>
    <g transform="matrix(22.0061,-3.08149e-31,7.52913e-32,6.76983,-9674.38,-1081.04)">
        <path d="M720.881,598.702C721.422,598.702 721.86,600.127 721.86,601.884L721.86,627.847C721.86,629.806 721.371,631.394 720.769,631.394C715.71,631.394 694.596,631.394 690.037,631.394C689.557,631.394 689.167,630.128 689.167,628.565L689.167,601.437C689.167,600.712 689.256,600.016 689.413,599.503C689.571,598.99 689.785,598.702 690.008,598.702L720.881,598.702Z" style="fill:white;"/>
    </g>
    <g transform="matrix(16.5215,-3.49821e-31,5.65264e-32,7.68533,-6923.45,-1268.62)">
        <path d="M720.556,602.9C720.902,602.9 721.234,603.195 721.478,603.721C721.723,604.247 721.86,604.96 721.86,605.703L721.86,628.269C721.86,629.098 721.707,629.893 721.434,630.479C721.162,631.065 720.792,631.394 720.406,631.394L686.936,631.394C686.483,631.394 686.072,630.826 685.883,629.941C685.694,629.056 685.762,628.015 686.058,627.276C688.793,620.448 694.103,607.188 695.485,603.737C695.698,603.206 696.008,602.9 696.334,602.9L720.556,602.9Z" style="fill:white;"/>
    </g>
    <g transform="matrix(17.872,-3.08149e-31,6.11469e-32,6.76983,-8344.88,296.717)">
        <path d="M720.655,598.702C721.32,598.702 721.86,600.127 721.86,601.884L721.86,627.847C721.86,629.806 721.258,631.394 720.516,631.394C715.123,631.394 695.105,631.394 690.239,631.394C689.647,631.394 689.167,630.128 689.167,628.565L689.167,601.437C689.167,599.926 689.631,598.702 690.203,598.702L720.655,598.702Z" style="fill:white;"/>
    </g>
    <g transform="matrix(28.0993,-3.08149e-31,9.61382e-32,6.76983,-16310.9,549.009)">
        <path d="M721.079,598.763C721.285,598.747 721.483,599.075 721.63,599.673C721.777,600.272 721.86,601.09 721.86,601.945L721.86,627.847C721.86,629.806 721.477,631.394 721.005,631.394L692.635,631.394C692.352,631.394 692.097,630.663 691.998,629.56C691.898,628.457 691.973,627.213 692.187,626.437C694.056,619.646 697.337,607.728 698.708,602.748C699.114,601.271 699.634,600.437 700.174,600.395C703.737,600.117 717.625,599.033 721.079,598.763Z" style="fill:white;"/>
    </g>
    <g transform="matrix(10.4442,0,0,10.4442,7176.31,-5415.6)">
        <g transform="matrix(220.728,0,0,220.728,104.5,991.175)">
            <path d="M0.265,0.011C0.216,0.011 0.175,0.001 0.143,-0.018C0.11,-0.037 0.086,-0.065 0.069,-0.101C0.052,-0.138 0.043,-0.183 0.041,-0.236L0.168,-0.261C0.169,-0.229 0.173,-0.202 0.179,-0.178C0.186,-0.154 0.195,-0.135 0.208,-0.122C0.221,-0.109 0.239,-0.103 0.26,-0.103C0.284,-0.103 0.301,-0.11 0.311,-0.124C0.321,-0.139 0.326,-0.157 0.326,-0.179C0.326,-0.214 0.318,-0.243 0.302,-0.266C0.286,-0.288 0.264,-0.311 0.238,-0.334L0.136,-0.424C0.107,-0.448 0.084,-0.476 0.067,-0.506C0.051,-0.537 0.042,-0.574 0.042,-0.619C0.042,-0.683 0.061,-0.733 0.098,-0.767C0.136,-0.802 0.187,-0.819 0.251,-0.819C0.289,-0.819 0.321,-0.813 0.346,-0.802C0.371,-0.79 0.391,-0.774 0.406,-0.753C0.421,-0.733 0.433,-0.709 0.44,-0.683C0.447,-0.657 0.452,-0.629 0.454,-0.599L0.328,-0.577C0.326,-0.602 0.324,-0.625 0.32,-0.645C0.315,-0.665 0.308,-0.68 0.297,-0.692C0.286,-0.704 0.269,-0.709 0.248,-0.709C0.226,-0.709 0.209,-0.702 0.198,-0.688C0.186,-0.673 0.18,-0.655 0.18,-0.634C0.18,-0.606 0.186,-0.584 0.197,-0.566C0.209,-0.549 0.225,-0.531 0.246,-0.512L0.347,-0.423C0.38,-0.395 0.409,-0.362 0.432,-0.325C0.456,-0.287 0.468,-0.242 0.468,-0.188C0.468,-0.149 0.46,-0.115 0.443,-0.085C0.426,-0.055 0.402,-0.031 0.372,-0.015C0.341,0.002 0.306,0.011 0.265,0.011Z" style="fill:url(#_Linear1);fill-rule:nonzero;"/>
        </g>
        <g transform="matrix(220.728,0,0,220.728,206.697,991.175)">
            <path d="M0.279,0.011C0.22,0.011 0.173,-0.001 0.14,-0.024C0.106,-0.047 0.082,-0.079 0.069,-0.12C0.055,-0.16 0.049,-0.207 0.049,-0.259L0.049,-0.548C0.049,-0.603 0.055,-0.651 0.069,-0.692C0.082,-0.732 0.106,-0.764 0.14,-0.786C0.173,-0.808 0.22,-0.819 0.279,-0.819C0.335,-0.819 0.379,-0.809 0.41,-0.79C0.442,-0.771 0.465,-0.744 0.478,-0.709C0.492,-0.674 0.498,-0.633 0.498,-0.586L0.498,-0.518L0.356,-0.518L0.356,-0.588C0.356,-0.611 0.355,-0.631 0.353,-0.65C0.351,-0.669 0.344,-0.684 0.333,-0.695C0.323,-0.706 0.305,-0.711 0.28,-0.711C0.255,-0.711 0.236,-0.706 0.225,-0.694C0.213,-0.682 0.205,-0.666 0.202,-0.646C0.199,-0.627 0.197,-0.604 0.197,-0.58L0.197,-0.228C0.197,-0.199 0.199,-0.174 0.204,-0.155C0.209,-0.136 0.217,-0.122 0.23,-0.112C0.242,-0.103 0.258,-0.098 0.28,-0.098C0.304,-0.098 0.322,-0.104 0.332,-0.115C0.343,-0.127 0.35,-0.143 0.352,-0.162C0.355,-0.182 0.356,-0.203 0.356,-0.227L0.356,-0.3L0.498,-0.3L0.498,-0.235C0.498,-0.187 0.492,-0.145 0.479,-0.108C0.466,-0.071 0.444,-0.042 0.412,-0.021C0.381,0 0.337,0.011 0.279,0.011Z" style="fill:url(#_Linear2);fill-rule:nonzero;"/>
        </g>
        <g transform="matrix(220.728,0,0,220.728,319.048,991.175)">
            <path d="M0.02,-0L0.182,-0.81L0.34,-0.81L0.502,-0L0.365,-0L0.333,-0.187L0.192,-0.187L0.159,-0L0.02,-0ZM0.207,-0.281L0.317,-0.281L0.262,-0.621L0.207,-0.281Z" style="fill:url(#_Linear3);fill-rule:nonzero;"/>
        </g>
        <g transform="matrix(220.728,0,0,220.728,427.426,991.175)">
            <path d="M0.061,-0L0.061,-0.81L0.164,-0.81L0.361,-0.348L0.361,-0.81L0.483,-0.81L0.483,-0L0.385,-0L0.187,-0.484L0.187,-0L0.061,-0Z" style="fill:url(#_Linear4);fill-rule:nonzero;"/>
        </g>
        <g transform="matrix(220.728,0,0,220.728,540.88,991.175)">
        </g>
        <g transform="matrix(220.728,0,0,220.728,572.549,991.175)">
            <path d="M0.232,0.011C0.195,0.011 0.163,0.003 0.135,-0.013C0.107,-0.029 0.086,-0.051 0.071,-0.079C0.056,-0.107 0.048,-0.14 0.048,-0.178C0.048,-0.229 0.059,-0.274 0.082,-0.312C0.104,-0.35 0.132,-0.385 0.165,-0.417C0.152,-0.441 0.139,-0.465 0.126,-0.49C0.113,-0.514 0.102,-0.539 0.093,-0.564C0.085,-0.59 0.08,-0.615 0.08,-0.641C0.08,-0.676 0.087,-0.706 0.101,-0.733C0.115,-0.76 0.135,-0.781 0.161,-0.796C0.187,-0.812 0.219,-0.82 0.255,-0.82C0.289,-0.82 0.319,-0.813 0.345,-0.8C0.37,-0.787 0.391,-0.768 0.406,-0.744C0.421,-0.719 0.429,-0.691 0.429,-0.658C0.429,-0.622 0.421,-0.588 0.405,-0.558C0.39,-0.528 0.371,-0.5 0.349,-0.474C0.327,-0.449 0.305,-0.426 0.285,-0.405L0.393,-0.22C0.399,-0.232 0.405,-0.248 0.41,-0.266C0.414,-0.285 0.418,-0.305 0.421,-0.326C0.424,-0.348 0.426,-0.367 0.428,-0.385L0.536,-0.385C0.536,-0.353 0.532,-0.321 0.526,-0.292C0.52,-0.263 0.511,-0.235 0.501,-0.21C0.491,-0.185 0.479,-0.162 0.466,-0.141C0.474,-0.132 0.484,-0.123 0.498,-0.116C0.511,-0.109 0.524,-0.105 0.539,-0.105L0.539,0.01C0.535,0.01 0.531,0.011 0.528,0.011C0.524,0.011 0.521,0.012 0.517,0.012C0.499,0.011 0.483,0.007 0.467,-0C0.452,-0.008 0.438,-0.018 0.425,-0.029C0.413,-0.041 0.401,-0.052 0.391,-0.063C0.374,-0.041 0.352,-0.023 0.325,-0.01C0.299,0.004 0.268,0.011 0.232,0.011ZM0.235,-0.089C0.255,-0.089 0.272,-0.094 0.287,-0.104C0.302,-0.114 0.314,-0.126 0.325,-0.139L0.214,-0.326C0.199,-0.304 0.187,-0.281 0.179,-0.256C0.171,-0.232 0.167,-0.207 0.167,-0.181C0.167,-0.165 0.169,-0.15 0.174,-0.135C0.178,-0.121 0.186,-0.11 0.196,-0.102C0.206,-0.093 0.219,-0.089 0.235,-0.089ZM0.243,-0.477C0.255,-0.492 0.266,-0.509 0.276,-0.53C0.286,-0.55 0.295,-0.572 0.302,-0.595C0.309,-0.618 0.312,-0.64 0.312,-0.66C0.312,-0.678 0.307,-0.692 0.296,-0.702C0.286,-0.713 0.272,-0.718 0.256,-0.718C0.238,-0.718 0.223,-0.71 0.214,-0.695C0.205,-0.68 0.2,-0.662 0.2,-0.641C0.2,-0.612 0.205,-0.584 0.214,-0.555C0.223,-0.527 0.233,-0.501 0.243,-0.477Z" style="fill:url(#_Linear5);fill-rule:nonzero;"/>
        </g>
        <g transform="matrix(220.728,0,0,220.728,695.274,991.175)">
        </g>
        <g transform="matrix(220.728,0,0,220.728,726.942,991.175)">
            <path d="M0.265,0.011C0.216,0.011 0.175,0.001 0.143,-0.018C0.11,-0.037 0.086,-0.065 0.069,-0.101C0.052,-0.138 0.043,-0.183 0.041,-0.236L0.168,-0.261C0.169,-0.229 0.173,-0.202 0.179,-0.178C0.186,-0.154 0.195,-0.135 0.208,-0.122C0.221,-0.109 0.239,-0.103 0.26,-0.103C0.284,-0.103 0.301,-0.11 0.311,-0.124C0.321,-0.139 0.326,-0.157 0.326,-0.179C0.326,-0.214 0.318,-0.243 0.302,-0.266C0.286,-0.288 0.264,-0.311 0.238,-0.334L0.136,-0.424C0.107,-0.448 0.084,-0.476 0.067,-0.506C0.051,-0.537 0.042,-0.574 0.042,-0.619C0.042,-0.683 0.061,-0.733 0.098,-0.767C0.136,-0.802 0.187,-0.819 0.251,-0.819C0.289,-0.819 0.321,-0.813 0.346,-0.802C0.371,-0.79 0.391,-0.774 0.406,-0.753C0.421,-0.733 0.433,-0.709 0.44,-0.683C0.447,-0.657 0.452,-0.629 0.454,-0.599L0.328,-0.577C0.326,-0.602 0.324,-0.625 0.32,-0.645C0.315,-0.665 0.308,-0.68 0.297,-0.692C0.286,-0.704 0.269,-0.709 0.248,-0.709C0.226,-0.709 0.209,-0.702 0.198,-0.688C0.186,-0.673 0.18,-0.655 0.18,-0.634C0.18,-0.606 0.186,-0.584 0.197,-0.566C0.209,-0.549 0.225,-0.531 0.246,-0.512L0.347,-0.423C0.38,-0.395 0.409,-0.362 0.432,-0.325C0.456,-0.287 0.468,-0.242 0.468,-0.188C0.468,-0.149 0.46,-0.115 0.443,-0.085C0.426,-0.055 0.402,-0.031 0.372,-0.015C0.341,0.002 0.306,0.011 0.265,0.011Z" style="fill:url(#_Linear6);fill-rule:nonzero;"/>
        </g>
        <g transform="matrix(220.728,0,0,220.728,829.14,991.175)">
            <path d="M0.142,-0L0.142,-0.701L0.013,-0.701L0.013,-0.81L0.417,-0.81L0.417,-0.701L0.29,-0.701L0.29,-0L0.142,-0Z" style="fill:url(#_Linear7);fill-rule:nonzero;"/>
        </g>
        <g transform="matrix(220.728,0,0,220.728,915.886,991.175)">
            <path d="M0.281,0.011C0.224,0.011 0.178,-0 0.144,-0.021C0.11,-0.043 0.085,-0.073 0.071,-0.113C0.056,-0.153 0.049,-0.2 0.049,-0.255L0.049,-0.558C0.049,-0.613 0.056,-0.66 0.071,-0.699C0.086,-0.738 0.11,-0.767 0.144,-0.788C0.178,-0.809 0.224,-0.819 0.281,-0.819C0.339,-0.819 0.385,-0.809 0.419,-0.788C0.453,-0.767 0.478,-0.737 0.492,-0.699C0.507,-0.66 0.515,-0.613 0.515,-0.558L0.515,-0.254C0.515,-0.2 0.507,-0.153 0.492,-0.113C0.478,-0.074 0.453,-0.043 0.419,-0.022C0.385,-0 0.339,0.011 0.281,0.011ZM0.281,-0.098C0.306,-0.098 0.324,-0.103 0.335,-0.114C0.347,-0.125 0.355,-0.14 0.359,-0.158C0.363,-0.176 0.365,-0.197 0.365,-0.219L0.365,-0.592C0.365,-0.615 0.363,-0.635 0.359,-0.653C0.355,-0.671 0.347,-0.685 0.335,-0.696C0.324,-0.706 0.306,-0.711 0.281,-0.711C0.258,-0.711 0.24,-0.706 0.228,-0.696C0.216,-0.685 0.208,-0.671 0.204,-0.653C0.2,-0.635 0.198,-0.615 0.198,-0.592L0.198,-0.219C0.198,-0.197 0.2,-0.176 0.204,-0.158C0.208,-0.14 0.215,-0.125 0.227,-0.114C0.239,-0.103 0.257,-0.098 0.281,-0.098Z" style="fill:url(#_Linear8);fill-rule:nonzero;"/>
        </g>
        <g transform="matrix(220.728,0,0,220.728,1033.31,991.175)">
            <path d="M0.279,0.011C0.22,0.011 0.173,-0.001 0.14,-0.024C0.106,-0.047 0.082,-0.079 0.069,-0.12C0.055,-0.16 0.049,-0.207 0.049,-0.259L0.049,-0.548C0.049,-0.603 0.055,-0.651 0.069,-0.692C0.082,-0.732 0.106,-0.764 0.14,-0.786C0.173,-0.808 0.22,-0.819 0.279,-0.819C0.335,-0.819 0.379,-0.809 0.41,-0.79C0.442,-0.771 0.465,-0.744 0.478,-0.709C0.492,-0.674 0.498,-0.633 0.498,-0.586L0.498,-0.518L0.356,-0.518L0.356,-0.588C0.356,-0.611 0.355,-0.631 0.353,-0.65C0.351,-0.669 0.344,-0.684 0.333,-0.695C0.323,-0.706 0.305,-0.711 0.28,-0.711C0.255,-0.711 0.236,-0.706 0.225,-0.694C0.213,-0.682 0.205,-0.666 0.202,-0.646C0.199,-0.627 0.197,-0.604 0.197,-0.58L0.197,-0.228C0.197,-0.199 0.199,-0.174 0.204,-0.155C0.209,-0.136 0.217,-0.122 0.23,-0.112C0.242,-0.103 0.258,-0.098 0.28,-0.098C0.304,-0.098 0.322,-0.104 0.332,-0.115C0.343,-0.127 0.35,-0.143 0.352,-0.162C0.355,-0.182 0.356,-0.203 0.356,-0.227L0.356,-0.3L0.498,-0.3L0.498,-0.235C0.498,-0.187 0.492,-0.145 0.479,-0.108C0.466,-0.071 0.444,-0.042 0.412,-0.021C0.381,0 0.337,0.011 0.279,0.011Z" style="fill:url(#_Linear9);fill-rule:nonzero;"/>
        </g>
        <g transform="matrix(220.728,0,0,220.728,1145.66,991.175)">
            <path d="M0.061,-0L0.061,-0.81L0.209,-0.81L0.209,-0.454L0.369,-0.81L0.51,-0.81L0.355,-0.448L0.526,-0L0.379,-0L0.243,-0.369L0.209,-0.307L0.209,-0L0.061,-0Z" style="fill:url(#_Linear10);fill-rule:nonzero;"/>
        </g>
        <g transform="matrix(220.728,0,0,220.728,1263.09,991.175)">
        </g>
    </g>
    <defs>
        <linearGradient id="_Linear1" x1="0" y1="0" x2="1" y2="0" gradientUnits="userSpaceOnUse" gradientTransform="matrix(8.1082,0,0,8.1082,-1.07668,-0.321069)"><stop offset="0" style="stop-color:white;stop-opacity:1"/><stop offset="1" style="stop-color:white;stop-opacity:1"/></linearGradient>
        <linearGradient id="_Linear2" x1="0" y1="0" x2="1" y2="0" gradientUnits="userSpaceOnUse" gradientTransform="matrix(8.1082,0,0,8.1082,-1.53968,-0.321069)"><stop offset="0" style="stop-color:white;stop-opacity:1"/><stop offset="1" style="stop-color:white;stop-opacity:1"/></linearGradient>
        <linearGradient id="_Linear3" x1="0" y1="0" x2="1" y2="0" gradientUnits="userSpaceOnUse" gradientTransform="matrix(8.1082,0,0,8.1082,-2.04868,-0.321069)"><stop offset="0" style="stop-color:white;stop-opacity:1"/><stop offset="1" style="stop-color:white;stop-opacity:1"/></linearGradient>
        <linearGradient id="_Linear4" x1="0" y1="0" x2="1" y2="0" gradientUnits="userSpaceOnUse" gradientTransform="matrix(8.1082,0,0,8.1082,-2.53968,-0.321069)"><stop offset="0" style="stop-color:white;stop-opacity:1"/><stop offset="1" style="stop-color:white;stop-opacity:1"/></linearGradient>
        <linearGradient id="_Linear5" x1="0" y1="0" x2="1" y2="0" gradientUnits="userSpaceOnUse" gradientTransform="matrix(8.1082,0,0,8.1082,-3.19715,-0.321069)"><stop offset="0" style="stop-color:white;stop-opacity:1"/><stop offset="1" style="stop-color:white;stop-opacity:1"/></linearGradient>
        <linearGradient id="_Linear6" x1="0" y1="0" x2="1" y2="0" gradientUnits="userSpaceOnUse" gradientTransform="matrix(8.1082,0,0,8.1082,-3.89663,-0.321069)"><stop offset="0" style="stop-color:white;stop-opacity:1"/><stop offset="1" style="stop-color:white;stop-opacity:1"/></linearGradient>
        <linearGradient id="_Linear7" x1="0" y1="0" x2="1" y2="0" gradientUnits="userSpaceOnUse" gradientTransform="matrix(8.1082,0,0,8.1082,-4.35963,-0.321069)"><stop offset="0" style="stop-color:white;stop-opacity:1"/><stop offset="1" style="stop-color:white;stop-opacity:1"/></linearGradient>
        <linearGradient id="_Linear8" x1="0" y1="0" x2="1" y2="0" gradientUnits="userSpaceOnUse" gradientTransform="matrix(8.1082,0,0,8.1082,-4.75263,-0.321069)"><stop offset="0" style="stop-color:white;stop-opacity:1"/><stop offset="1" style="stop-color:white;stop-opacity:1"/></linearGradient>
        <linearGradient id="_Linear9" x1="0" y1="0" x2="1" y2="0" gradientUnits="userSpaceOnUse" gradientTransform="matrix(8.1082,0,0,8.1082,-5.28463,-0.321069)"><stop offset="0" style="stop-color:white;stop-opacity:1"/><stop offset="1" style="stop-color:white;stop-opacity:1"/></linearGradient>
        <linearGradient id="_Linear10" x1="0" y1="0" x2="1" y2="0" gradientUnits="userSpaceOnUse" gradientTransform="matrix(8.1082,0,0,8.1082,-5.79363,-0.321069)"><stop offset="0" style="stop-color:white;stop-opacity:1"/><stop offset="1" style="stop-color:white;stop-opacity:1"/></linearGradient>
    </defs>
</svg>
